<svg width="57" height="57" viewBox="0 0 57 57" fill="none" xmlns="http://www.w3.org/2000/svg">
<path d="M28.5 1C13.3118 1 1 13.3118 1 28.5C1 43.6882 13.3118 56 28.5 56C43.6882 56 56 43.6882 56 28.5C56 13.3118 43.6882 1 28.5 1Z" stroke="#545A2F" stroke-width="1.5" stroke-linecap="round" stroke-linejoin="round"/>
<path d="M17.5 53.712V34L28.5 14.75L39.5 34V53.712" stroke="#545A2F" stroke-width="1.5" stroke-linecap="round" stroke-linejoin="round"/>
<path d="M17.5 34C17.5 34 20.5993 36.75 23 36.75C25.4008 36.75 28.5 34 28.5 34C28.5 34 31.5993 36.75 34 36.75C36.4008 36.75 39.5 34 39.5 34" stroke="#545A2F" stroke-width="1.5" stroke-linecap="round" stroke-linejoin="round"/>
</svg>
