<svg width="55" height="55" viewBox="0 0 55 55" fill="none" xmlns="http://www.w3.org/2000/svg">
<path d="M44.9219 11.7707C44.691 11.6643 44.5084 11.4751 44.4104 11.2405C43.0119 7.90979 40.6611 5.0662 37.6527 3.06648C34.6443 1.06677 31.1123 0 27.4999 0C23.8876 0 20.3556 1.06677 17.3472 3.06648C14.3388 5.0662 11.9879 7.90979 10.5895 11.2405C10.4914 11.4751 10.3087 11.6643 10.0777 11.7707C7.08203 13.1573 4.54328 15.3686 2.75857 18.1456C0.973849 20.9226 0.0170007 24.1505 3.03816e-06 27.4515C-0.0254599 36.7862 7.54161 44.5727 16.8682 44.809C20.261 44.9001 23.6053 43.9872 26.4814 42.1851V53.9813C26.4814 54.2514 26.5887 54.5105 26.7797 54.7015C26.9707 54.8925 27.2298 54.9998 27.4999 54.9998C27.7701 54.9998 28.0291 54.8925 28.2201 54.7015C28.4111 54.5105 28.5185 54.2514 28.5185 53.9813V42.1856C31.2649 43.9087 34.4426 44.8201 37.6848 44.8146C37.8335 44.8146 37.9833 44.8128 38.1325 44.8093C47.459 44.573 55.0258 36.7859 54.9999 27.451C54.9827 24.15 54.0257 20.9223 52.241 18.1454C50.4562 15.3685 47.9175 13.1573 44.9219 11.7707ZM38.081 42.7725C34.9276 42.8625 31.8248 41.9653 29.2059 40.2063C28.992 40.0637 28.761 39.9484 28.5185 39.8631V28.1296L40.1779 22.2998C40.4195 22.1789 40.6033 21.967 40.6886 21.7107C40.774 21.4543 40.7541 21.1746 40.6332 20.933C40.5123 20.6913 40.3004 20.5076 40.0441 20.4222C39.7877 20.3369 39.508 20.3568 39.2663 20.4777L28.5185 25.8516V17.3147C28.5185 17.0446 28.4111 16.7855 28.2201 16.5945C28.0291 16.4035 27.7701 16.2962 27.4999 16.2962C27.2298 16.2962 26.9707 16.4035 26.7797 16.5945C26.5887 16.7855 26.4814 17.0446 26.4814 17.3147V31.9627L15.7335 26.5888C15.4919 26.4679 15.2121 26.448 14.9558 26.5333C14.6995 26.6187 14.4876 26.8024 14.3667 27.0441C14.2458 27.2857 14.2259 27.5654 14.3112 27.8218C14.3966 28.0781 14.5803 28.29 14.822 28.4109L26.4814 34.2406V39.8629C26.2388 39.9483 26.0078 40.0637 25.7939 40.2066C23.1758 41.9667 20.0728 42.8639 16.9193 42.7725C8.69075 42.5647 2.01463 35.6938 2.03704 27.4571C2.05213 24.5442 2.89656 21.6959 4.4715 19.2456C6.04644 16.7952 8.28674 14.844 10.9302 13.6205C11.624 13.3015 12.1727 12.7335 12.4677 12.0291C13.7107 9.06827 15.8005 6.54048 18.4748 4.76284C21.1491 2.9852 24.2887 2.0369 27.4999 2.0369C30.7111 2.0369 33.8508 2.9852 36.5251 4.76284C39.1994 6.54048 41.2891 9.06827 42.5322 12.0291C42.8271 12.7335 43.3758 13.3015 44.0697 13.6205C46.7131 14.844 48.9533 16.795 50.5282 19.2453C52.1032 21.6956 52.9476 24.5438 52.9628 27.4566C52.9858 35.6938 46.3096 42.5647 38.081 42.7728V42.7725Z" fill="#545A2F"/>
</svg>
